<?xml version="1.0" encoding="UTF-8" standalone="no"?>
<!-- Created with Inkscape (http://www.inkscape.org/) -->

<svg
   version="1.1"
   id="svg2"
   xml:space="preserve"
   width="3466.6667"
   height="1066.6667"
   viewBox="0 0 3466.6667 1066.6667"
   sodipodi:docname="localitizquizz.ai"
   xmlns:inkscape="http://www.inkscape.org/namespaces/inkscape"
   xmlns:sodipodi="http://sodipodi.sourceforge.net/DTD/sodipodi-0.dtd"
   xmlns="http://www.w3.org/2000/svg"
   xmlns:svg="http://www.w3.org/2000/svg"><defs
     id="defs6"><clipPath
       clipPathUnits="userSpaceOnUse"
       id="clipPath16"><path
         d="M 0,800 H 2600 V 0 H 0 Z"
         id="path14" /></clipPath></defs><sodipodi:namedview
     id="namedview4"
     pagecolor="#ffffff"
     bordercolor="#666666"
     borderopacity="1.0"
     inkscape:pageshadow="2"
     inkscape:pageopacity="0.0"
     inkscape:pagecheckerboard="0" /><g
     id="g8"
     inkscape:groupmode="layer"
     inkscape:label="localitizquizz"
     transform="matrix(1.3333333,0,0,-1.3333333,0,1066.6667)"><g
       id="g10"><g
         id="g12"
         clip-path="url(#clipPath16)"><g
           id="g18"
           transform="translate(663.498,457.1162)"><path
             d="m 0,0 c 60.251,-60.251 60.251,-157.938 0,-218.189 -60.251,-60.251 -157.938,-60.251 -218.189,0 l -166.851,166.85 c -60.251,60.251 -60.252,157.938 0,218.19 60.251,60.251 157.938,60.251 218.189,0 C -133.384,133.384 -33.467,33.466 0,0 m -410.709,192.52 c -74.429,-74.428 -74.428,-195.101 0,-269.528 31.501,-31.503 135.348,-135.348 166.85,-166.85 74.428,-74.429 195.1,-74.429 269.528,0 74.428,74.427 74.428,195.099 0,269.527 -31.502,31.502 -135.348,135.349 -166.851,166.851 -74.427,74.428 -195.1,74.428 -269.527,0"
             style="fill:#fad4cd;fill-opacity:1;fill-rule:nonzero;stroke:none"
             id="path20" /></g><g
           id="g22"
           transform="translate(541.8359,278.9092)"><path
             d="m 0,0 c 0,-85.208 -69.075,-154.283 -154.283,-154.283 -85.209,0 -154.283,69.075 -154.283,154.283 v 235.963 c 0,85.207 69.074,154.283 154.283,154.283 C -69.075,390.246 0,321.17 0,235.963 Z m -154.283,426.548 c -105.258,0 -190.585,-85.328 -190.585,-190.585 V 0 c 0,-105.257 85.327,-190.585 190.585,-190.585 105.257,0 190.585,85.328 190.585,190.585 v 235.963 c 0,105.257 -85.328,190.585 -190.585,190.585"
             style="fill:#b5e1f8;fill-opacity:1;fill-rule:nonzero;stroke:none"
             id="path24" /></g><g
           id="g26"
           transform="translate(329.7969,238.9268)"><path
             d="m 0,0 c -60.251,-60.251 -157.938,-60.251 -218.189,0 -60.251,60.251 -60.251,157.938 0,218.189 33.466,33.467 133.384,133.384 166.851,166.851 60.251,60.251 157.937,60.251 218.189,0 60.251,-60.251 60.251,-157.938 0,-218.189 z m 192.52,410.709 c -74.428,74.428 -195.1,74.428 -269.528,0 -31.502,-31.502 -135.348,-135.349 -166.85,-166.851 -74.429,-74.427 -74.429,-195.099 -0.001,-269.528 74.428,-74.428 195.101,-74.428 269.528,0 L 192.52,141.181 c 74.428,74.428 74.428,195.1 0,269.528"
             style="fill:#d3eae4;fill-opacity:1;fill-rule:nonzero;stroke:none"
             id="path28" /></g><g
           id="g30"
           transform="translate(278.458,405.7773)"><path
             d="M 0,0 C -30.125,30.124 -45.187,69.606 -45.188,109.089 V -2.837 c 5.81,-7.987 12.313,-15.628 19.519,-22.832 19.781,-19.781 68.086,-68.088 109.094,-109.096 7.977,7.978 16.655,16.655 25.67,25.67 C 68.504,-68.505 21.076,-21.076 0,0"
             style="fill:#f18881;fill-opacity:1;fill-rule:nonzero;stroke:none"
             id="path32" /></g><g
           id="g34"
           transform="translate(497.9697,622.6274)"><path
             d="m 0,0 c 0.298,-0.306 0.593,-0.613 0.888,-0.92 0.137,-0.143 0.277,-0.286 0.414,-0.43 0.355,-0.373 0.706,-0.747 1.057,-1.123 0.068,-0.072 0.137,-0.145 0.205,-0.218 0.408,-0.438 0.812,-0.877 1.213,-1.319 0.004,-0.004 0.008,-0.008 0.012,-0.012 11.982,-13.171 21.278,-27.914 27.886,-43.525 0.028,-0.066 0.056,-0.131 0.084,-0.197 0.143,-0.339 0.283,-0.678 0.423,-1.017 0.119,-0.287 0.238,-0.574 0.356,-0.862 0.048,-0.118 0.095,-0.237 0.143,-0.356 6.331,-15.665 10.164,-32.607 11.007,-50.334 0.002,-0.064 0.005,-0.128 0.008,-0.192 0.025,-0.538 0.048,-1.078 0.068,-1.618 0.006,-0.174 0.01,-0.35 0.016,-0.525 0.014,-0.439 0.029,-0.878 0.039,-1.318 0.008,-0.314 0.013,-0.628 0.018,-0.942 0.006,-0.312 0.013,-0.623 0.017,-0.936 0.008,-0.639 0.012,-1.278 0.012,-1.917 v -111.926 c 24.199,33.27 36.302,72.6 36.302,111.932 0,0.787 -0.005,1.573 -0.015,2.358 -0.005,0.396 -0.014,0.791 -0.021,1.187 -0.007,0.377 -0.012,0.755 -0.022,1.133 -0.013,0.549 -0.03,1.097 -0.049,1.645 -0.007,0.211 -0.012,0.422 -0.019,0.632 -0.025,0.671 -0.053,1.342 -0.085,2.013 -0.003,0.074 -0.006,0.148 -0.01,0.222 -0.333,6.95 -1.047,13.885 -2.137,20.772 -31.879,31.879 -63.106,63.105 -79.123,79.124 0.202,-0.203 0.4,-0.407 0.601,-0.61 C -0.475,0.481 -0.236,0.242 0,0"
             style="fill:#028390;fill-opacity:1;fill-rule:nonzero;stroke:none"
             id="path36" /></g><g
           id="g38"
           transform="translate(197.1782,523.8403)"><path
             d="M 0,0 C -0.031,-0.67 -0.06,-1.342 -0.084,-2.013 -0.091,-2.223 -0.097,-2.434 -0.104,-2.645 -0.122,-3.193 -0.14,-3.741 -0.153,-4.29 -0.162,-4.667 -0.167,-5.045 -0.174,-5.423 -0.182,-5.819 -0.191,-6.214 -0.196,-6.61 -0.205,-7.395 -0.21,-8.181 -0.21,-8.968 -0.21,-48.3 11.892,-87.63 36.091,-120.9 V -8.974 c 0,0.64 0.005,1.278 0.013,1.917 0.003,0.312 0.01,0.624 0.016,0.935 0.006,0.314 0.01,0.629 0.018,0.943 0.01,0.438 0.025,0.874 0.039,1.311 0.006,0.178 0.011,0.356 0.017,0.535 0.019,0.537 0.042,1.072 0.067,1.608 0.003,0.067 0.006,0.134 0.009,0.201 0.842,17.728 4.677,34.672 11.009,50.339 0.047,0.116 0.093,0.232 0.14,0.348 0.118,0.29 0.239,0.579 0.359,0.869 0.139,0.337 0.278,0.674 0.419,1.01 0.03,0.068 0.059,0.136 0.088,0.204 6.607,15.606 15.899,30.344 27.877,43.511 0.014,0.016 0.029,0.032 0.044,0.048 0.391,0.43 0.784,0.858 1.181,1.284 0.082,0.088 0.164,0.176 0.247,0.264 0.337,0.36 0.675,0.72 1.016,1.078 0.158,0.166 0.319,0.331 0.478,0.496 0.274,0.285 0.547,0.571 0.824,0.854 0.29,0.298 0.582,0.592 0.875,0.886 0.14,0.142 0.278,0.284 0.418,0.425 C 65.22,84.066 34.01,52.856 2.147,20.993 1.057,14.107 0.343,7.172 0.01,0.222 0.006,0.148 0.003,0.074 0,0"
             style="fill:#028390;fill-opacity:1;fill-rule:nonzero;stroke:none"
             id="path40" /></g><g
           id="g42"
           transform="translate(496.6475,405.7773)"><path
             d="m 0,0 c -21.076,-21.076 -68.504,-68.505 -109.095,-109.095 -9.015,-9.015 -17.692,-17.692 -25.669,-25.67 9.039,-9.038 17.723,-17.722 25.669,-25.669 7.947,7.947 16.631,16.631 25.67,25.669 41.008,41.008 89.313,89.315 109.094,109.095 7.205,7.205 13.709,14.845 19.519,22.833 V 109.089 C 45.187,69.606 30.125,30.124 0,0"
             style="fill:#20a69a;fill-opacity:1;fill-rule:nonzero;stroke:none"
             id="path44" /></g><g
           id="g46"
           transform="translate(521.7979,650.1479)"><path
             d="M 0,0 C -0.38,0.378 -0.76,0.755 -1.143,1.129 -1.49,1.468 -1.84,1.803 -2.19,2.139 -2.397,2.338 -2.604,2.54 -2.812,2.738 -3.25,3.156 -3.692,3.571 -4.136,3.985 -4.247,4.089 -4.358,4.194 -4.47,4.298 c -0.524,0.488 -1.051,0.973 -1.581,1.454 -0.021,0.02 -0.042,0.04 -0.063,0.059 -15.737,14.299 -33.876,26.001 -53.74,34.431 -0.087,0.038 -0.175,0.076 -0.264,0.113 -0.409,0.173 -0.821,0.342 -1.233,0.513 -0.362,0.15 -0.725,0.301 -1.088,0.449 -0.139,0.057 -0.277,0.111 -0.415,0.167 -19.963,8.052 -41.013,12.588 -62.201,13.604 -0.073,0.004 -0.147,0.007 -0.22,0.01 -0.672,0.031 -1.343,0.06 -2.015,0.084 -0.21,0.008 -0.419,0.013 -0.629,0.02 -0.55,0.018 -1.099,0.036 -1.648,0.049 -0.376,0.009 -0.754,0.015 -1.131,0.022 -0.397,0.007 -0.793,0.016 -1.189,0.021 -0.784,0.01 -1.57,0.015 -2.357,0.015 h -0.001 c -0.788,0 -1.574,-0.005 -2.359,-0.015 -0.395,-0.005 -0.79,-0.014 -1.186,-0.021 -0.377,-0.007 -0.756,-0.013 -1.133,-0.022 -0.55,-0.013 -1.099,-0.031 -1.648,-0.049 -0.21,-0.007 -0.42,-0.012 -0.629,-0.02 -0.673,-0.024 -1.344,-0.053 -2.016,-0.084 -0.073,-0.003 -0.146,-0.006 -0.219,-0.01 -21.212,-1.018 -42.287,-5.562 -62.27,-13.632 -0.108,-0.044 -0.218,-0.087 -0.327,-0.131 -0.392,-0.159 -0.783,-0.323 -1.175,-0.485 -0.383,-0.159 -0.766,-0.316 -1.147,-0.477 -0.118,-0.05 -0.234,-0.1 -0.351,-0.15 -19.827,-8.423 -37.934,-20.107 -53.647,-34.38 -0.059,-0.054 -0.118,-0.109 -0.178,-0.163 -0.491,-0.447 -0.981,-0.898 -1.468,-1.35 -0.161,-0.15 -0.32,-0.301 -0.481,-0.452 -0.394,-0.369 -0.788,-0.738 -1.179,-1.11 -0.283,-0.271 -0.566,-0.545 -0.848,-0.818 -0.274,-0.263 -0.549,-0.526 -0.822,-0.792 -0.563,-0.549 -1.123,-1.102 -1.681,-1.66 -0.002,-0.002 -0.004,-0.004 -0.006,-0.006 -0.131,-0.13 -0.259,-0.263 -0.39,-0.395 -0.418,-0.42 -0.836,-0.842 -1.25,-1.265 -0.322,-0.33 -0.641,-0.664 -0.961,-0.996 -0.216,-0.225 -0.433,-0.448 -0.648,-0.674 -0.407,-0.427 -0.812,-0.859 -1.216,-1.291 -0.115,-0.122 -0.23,-0.244 -0.345,-0.367 -0.479,-0.515 -0.955,-1.033 -1.429,-1.554 -0.028,-0.03 -0.056,-0.061 -0.084,-0.091 -14.293,-15.731 -25.991,-33.863 -34.419,-53.717 -0.04,-0.095 -0.081,-0.19 -0.121,-0.285 -0.171,-0.403 -0.337,-0.807 -0.504,-1.211 -0.153,-0.371 -0.308,-0.741 -0.459,-1.112 -0.053,-0.129 -0.104,-0.26 -0.156,-0.39 -5.416,-13.42 -9.24,-27.333 -11.475,-41.448 31.862,31.862 63.073,63.073 79.097,79.098 0.012,0.011 0.023,0.023 0.035,0.035 0.156,0.155 0.313,0.308 0.469,0.463 0.291,0.289 0.582,0.578 0.875,0.864 0.284,0.277 0.57,0.551 0.856,0.826 0.165,0.158 0.329,0.319 0.496,0.477 0.357,0.341 0.717,0.678 1.077,1.014 0.088,0.083 0.176,0.166 0.264,0.249 0.427,0.396 0.854,0.789 1.284,1.181 0.016,0.014 0.032,0.029 0.048,0.044 13.165,11.975 27.901,21.267 43.503,27.873 0.072,0.03 0.143,0.062 0.215,0.092 0.333,0.14 0.666,0.278 1,0.415 0.293,0.122 0.585,0.244 0.878,0.363 0.113,0.046 0.226,0.091 0.339,0.136 15.669,6.334 32.616,10.17 50.348,11.012 0.064,0.004 0.128,0.006 0.193,0.009 0.538,0.025 1.077,0.048 1.617,0.067 0.175,0.007 0.351,0.011 0.526,0.017 0.439,0.014 0.877,0.029 1.317,0.039 0.314,0.008 0.629,0.013 0.943,0.018 0.312,0.006 0.623,0.013 0.935,0.017 1.274,0.016 2.549,0.016 3.824,0 0.312,-0.004 0.625,-0.011 0.937,-0.017 0.313,-0.005 0.626,-0.01 0.94,-0.018 0.44,-0.01 0.88,-0.025 1.32,-0.039 0.175,-0.006 0.349,-0.01 0.524,-0.017 0.54,-0.019 1.08,-0.042 1.619,-0.067 0.063,-0.004 0.127,-0.005 0.19,-0.009 17.726,-0.842 34.669,-4.675 50.335,-11.007 0.118,-0.048 0.237,-0.094 0.355,-0.142 0.288,-0.117 0.575,-0.237 0.863,-0.356 0.339,-0.14 0.678,-0.28 1.017,-0.423 0.065,-0.027 0.13,-0.056 0.195,-0.084 15.611,-6.608 30.354,-15.903 43.526,-27.886 0.005,-0.005 0.01,-0.01 0.015,-0.014 0.44,-0.401 0.879,-0.804 1.316,-1.21 0.075,-0.07 0.148,-0.14 0.223,-0.209 0.373,-0.35 0.747,-0.7 1.117,-1.054 0.147,-0.139 0.291,-0.28 0.437,-0.42 0.305,-0.293 0.611,-0.586 0.915,-0.882 0.239,-0.234 0.476,-0.47 0.714,-0.705 0.208,-0.206 0.417,-0.41 0.625,-0.617 0.003,-0.003 0.005,-0.006 0.008,-0.009 16.018,-16.018 47.245,-47.244 79.124,-79.124 -2.234,14.107 -6.056,28.012 -11.466,41.426 -0.057,0.139 -0.111,0.279 -0.168,0.418 -0.147,0.363 -0.299,0.725 -0.449,1.087 -0.17,0.412 -0.339,0.824 -0.513,1.235 -0.037,0.087 -0.075,0.175 -0.112,0.263 -8.431,19.865 -20.134,38.007 -34.436,53.744 -0.014,0.015 -0.027,0.03 -0.041,0.044 -0.487,0.536 -0.978,1.07 -1.471,1.6 -0.097,0.103 -0.194,0.206 -0.29,0.31 C 4.614,-4.736 4.191,-4.286 3.765,-3.839 3.579,-3.644 3.391,-3.45 3.204,-3.256 2.855,-2.894 2.508,-2.53 2.157,-2.17 1.823,-1.829 1.486,-1.49 1.149,-1.151 0.768,-0.766 0.385,-0.382 0,0"
             style="fill:#455b65;fill-opacity:1;fill-rule:nonzero;stroke:none"
             id="path48" /></g><g
           id="g50"
           transform="translate(491.2148,400.3604)"><path
             d="M 0,0 C 1.806,1.645 3.589,3.329 5.334,5.074 65.69,65.43 65.72,163.257 5.401,223.577 c -30.115,30.116 -69.58,45.184 -109.063,45.217 -39.484,-0.033 -78.948,-15.102 -109.063,-45.217 -60.32,-60.32 -60.29,-158.147 0.066,-218.503 1.758,-1.758 3.555,-3.453 5.375,-5.109 L -103.396,-103.923 0.263,-0.263 Z"
             style="fill:#5ec2d6;fill-opacity:1;fill-rule:nonzero;stroke:none"
             id="path52" /></g><g
           id="g54"
           transform="translate(423.8545,514.8711)"><path
             d="m 0,0 c 0,-20.049 -16.253,-36.302 -36.302,-36.302 -20.049,0 -36.302,16.253 -36.302,36.302 0,20.049 16.253,36.302 36.302,36.302 C -16.253,36.302 0,20.049 0,0"
             style="fill:#ffffff;fill-opacity:1;fill-rule:nonzero;stroke:none"
             id="path56" /></g><g
           id="g58"
           transform="translate(838.2173,159.4297)"><path
             d="m 0,0 h 24.246 v -34.686 c -3.773,-1.203 -7.611,-2.113 -11.514,-2.731 -3.902,-0.618 -8.423,-0.927 -13.562,-0.927 -10.797,0 -19.204,3.21 -25.221,9.633 -6.016,6.423 -9.025,15.426 -9.025,27.004 0,7.415 1.487,13.909 4.466,19.49 2.972,5.574 7.258,9.835 12.853,12.781 5.593,2.941 12.147,4.415 19.659,4.415 7.611,0 14.701,-1.399 21.27,-4.197 l -3.219,-7.317 c -6.44,2.732 -12.636,4.097 -18.587,4.097 -8.684,0 -15.465,-2.584 -20.343,-7.755 -4.878,-5.171 -7.317,-12.343 -7.317,-21.514 0,-9.627 2.348,-16.929 7.047,-21.904 4.7,-4.976 11.604,-7.464 20.71,-7.464 4.944,0 9.773,0.569 14.489,1.707 V -7.415 L 0,-7.415 Z"
             style="fill:#455b65;fill-opacity:1;fill-rule:nonzero;stroke:none"
             id="path60" /></g><g
           id="g62"
           transform="translate(931.3584,200.3105)"><path
             d="m 0,0 c 1.561,2.017 3.246,4.456 5.048,7.317 1.808,2.863 3.229,5.351 4.27,7.464 h 9.854 V 13.757 C 17.741,11.644 15.611,9.041 12.781,5.952 9.952,2.862 7.497,0.472 5.415,-1.22 H 0 Z M 27.319,-78.249 H -12.44 v 71.322 h 39.759 v -7.367 H -4.146 v -22.977 h 29.563 v -7.317 H -4.146 v -26.246 h 31.465 z"
             style="fill:#455b65;fill-opacity:1;fill-rule:nonzero;stroke:none"
             id="path64" /></g><g
           id="g66"
           transform="translate(1068.1323,122.0615)"><path
             d="m 0,0 h -9.464 l -38.978,59.857 h -0.391 c 0.52,-7.024 0.781,-13.463 0.781,-19.318 V 0 h -7.659 v 71.322 h 9.366 L -7.464,11.708 h 0.39 c -0.065,0.878 -0.211,3.698 -0.439,8.462 -0.228,4.765 -0.309,8.173 -0.244,10.223 V 71.322 H 0 Z"
             style="fill:#455b65;fill-opacity:1;fill-rule:nonzero;stroke:none"
             id="path68" /></g><g
           id="g70"
           transform="translate(1138.8462,200.3105)"><path
             d="m 0,0 c 1.561,2.017 3.246,4.456 5.047,7.317 1.808,2.863 3.23,5.351 4.27,7.464 h 9.855 V 13.757 C 17.741,11.644 15.611,9.041 12.781,5.952 9.952,2.862 7.496,0.472 5.415,-1.22 H 0 Z M 27.319,-78.249 H -12.44 v 71.322 h 39.759 v -7.367 H -4.147 v -22.977 h 29.563 v -7.317 H -4.147 v -26.246 h 31.466 z"
             style="fill:#455b65;fill-opacity:1;fill-rule:nonzero;stroke:none"
             id="path72" /></g><g
           id="g74"
           transform="translate(1228.2017,158.8447)"><path
             d="m 0,0 h 11.367 c 5.854,0 10.147,1.161 12.879,3.486 2.732,2.326 4.097,5.815 4.097,10.466 0,4.716 -1.391,8.114 -4.169,10.195 -2.784,2.082 -7.246,3.123 -13.393,3.123 H 0 Z m 0,-7.123 v -29.66 h -8.293 v 71.322 h 19.562 c 8.749,0 15.211,-1.676 19.39,-5.025 4.179,-3.35 6.27,-8.391 6.27,-15.123 0,-9.432 -4.781,-15.806 -14.342,-19.123 l 19.367,-32.051 h -9.806 l -17.269,29.66 z"
             style="fill:#455b65;fill-opacity:1;fill-rule:nonzero;stroke:none"
             id="path76" /></g><g
           id="g78"
           transform="translate(1359.7363,152.21)"><path
             d="m 0,0 -8.294,22.099 c -1.073,2.797 -2.179,6.228 -3.317,10.294 -0.715,-3.122 -1.74,-6.554 -3.074,-10.294 L -23.075,0 Z M 11.464,-30.148 2.585,-7.464 h -28.587 l -8.781,-22.684 h -8.391 l 28.197,71.614 h 6.976 L 20.05,-30.148 Z"
             style="fill:#455b65;fill-opacity:1;fill-rule:nonzero;stroke:none"
             id="path80" /></g><g
           id="g82"
           transform="translate(1445.043,122.0615)"><path
             d="m 0,0 h -8.294 v 63.955 h -22.587 v 7.367 H 22.587 V 63.955 L 0,63.955 Z"
             style="fill:#455b65;fill-opacity:1;fill-rule:nonzero;stroke:none"
             id="path84" /></g><g
           id="g86"
           transform="translate(1558.1367,122.0615)"><path
             d="M 0,0 H -39.759 V 71.322 H 0 V 63.955 H -31.466 V 40.979 H -1.902 V 33.661 H -31.466 V 7.415 L 0,7.415 Z"
             style="fill:#455b65;fill-opacity:1;fill-rule:nonzero;stroke:none"
             id="path88" /></g><g
           id="g90"
           transform="translate(1665.6563,193.3838)"><path
             d="m 0,0 v -46.15 c 0,-8.13 -2.455,-14.521 -7.366,-19.172 -4.911,-4.651 -11.659,-6.976 -20.245,-6.976 -8.586,0 -15.231,2.342 -19.927,7.025 -4.703,4.683 -7.051,11.123 -7.051,19.318 V 0 h 8.293 v -46.54 c 0,-5.952 1.626,-10.522 4.878,-13.708 3.253,-3.188 8.033,-4.781 14.343,-4.781 6.016,0 10.651,1.6 13.903,4.803 3.253,3.204 4.879,7.799 4.879,13.784 V 0 Z"
             style="fill:#455b65;fill-opacity:1;fill-rule:nonzero;stroke:none"
             id="path92" /></g><g
           id="g94"
           transform="translate(1731.7129,158.8447)"><path
             d="m 0,0 h 11.366 c 5.855,0 10.148,1.161 12.879,3.486 2.733,2.326 4.099,5.815 4.099,10.466 0,4.716 -1.393,8.114 -4.17,10.195 -2.784,2.082 -7.246,3.123 -13.393,3.123 H 0 Z m 0,-7.123 v -29.66 h -8.293 v 71.322 h 19.562 c 8.749,0 15.21,-1.676 19.39,-5.025 4.179,-3.35 6.271,-8.391 6.271,-15.123 0,-9.432 -4.782,-15.806 -14.343,-19.123 l 19.367,-32.051 h -9.806 l -17.269,29.66 z"
             style="fill:#455b65;fill-opacity:1;fill-rule:nonzero;stroke:none"
             id="path96" /></g><g
           id="g98"
           transform="translate(1939.21,158.1123)"><path
             d="m 0,0 c 0,9.302 -2.335,16.311 -6.999,21.026 -4.67,4.716 -11.604,7.074 -20.808,7.074 h -12.049 v -56.98 h 10.098 c 9.887,0 17.319,2.43 22.294,7.295 C -2.488,-16.726 0,-9.528 0,0 m 8.781,0.293 c 0,-11.773 -3.193,-20.775 -9.588,-27.004 -6.387,-6.227 -15.585,-9.34 -27.586,-9.34 h -19.756 v 71.322 h 21.855 c 11.09,0 19.708,-3.074 25.856,-9.22 C 5.708,19.904 8.781,11.318 8.781,0.293"
             style="fill:#455b65;fill-opacity:1;fill-rule:nonzero;stroke:none"
             id="path100" /></g><g
           id="g102"
           transform="translate(2042.5469,122.0615)"><path
             d="M 0,0 H -39.759 V 71.322 H 0 V 63.955 H -31.465 V 40.979 H -1.902 V 33.661 H -31.465 V 7.415 L 0,7.415 Z"
             style="fill:#455b65;fill-opacity:1;fill-rule:nonzero;stroke:none"
             id="path104" /></g><g
           id="g106"
           transform="translate(2164.2354,122.0615)"><path
             d="M 0,0 V 71.322 H 8.293 V 7.513 H 39.759 V 0 Z"
             style="fill:#455b65;fill-opacity:1;fill-rule:nonzero;stroke:none"
             id="path108" /></g><path
           d="m 2255.448,193.384 h 8.293 v -71.322 h -8.293 z"
           style="fill:#455b65;fill-opacity:1;fill-rule:nonzero;stroke:none"
           id="path110" /><g
           id="g112"
           transform="translate(2361.7578,122.0615)"><path
             d="M 0,0 H -39.759 V 71.322 H 0 V 63.955 H -31.466 V 40.979 H -1.902 V 33.661 H -31.466 V 7.415 L 0,7.415 Z"
             style="fill:#455b65;fill-opacity:1;fill-rule:nonzero;stroke:none"
             id="path114" /></g><g
           id="g116"
           transform="translate(2471.209,122.0615)"><path
             d="m 0,0 h -9.464 l -38.978,59.857 h -0.39 c 0.52,-7.024 0.78,-13.463 0.78,-19.318 V 0 h -7.659 v 71.322 h 9.366 L -7.464,11.708 h 0.391 c -0.066,0.878 -0.212,3.698 -0.44,8.462 -0.227,4.765 -0.308,8.173 -0.243,10.223 V 71.322 H 0 Z"
             style="fill:#455b65;fill-opacity:1;fill-rule:nonzero;stroke:none"
             id="path118" /></g><g
           id="g120"
           transform="translate(2569.8828,141.0381)"><path
             d="m 0,0 c 0,-6.276 -2.276,-11.171 -6.83,-14.684 -4.553,-3.512 -10.732,-5.268 -18.537,-5.268 -8.456,0 -14.961,1.089 -19.514,3.268 v 8 c 2.927,-1.235 6.114,-2.211 9.562,-2.926 3.447,-0.716 6.862,-1.074 10.244,-1.074 5.529,0 9.692,1.051 12.489,3.145 2.797,2.102 4.195,5.018 4.195,8.759 0,2.471 -0.498,4.494 -1.49,6.072 -0.991,1.577 -2.65,3.034 -4.975,4.367 -2.326,1.334 -5.861,2.846 -10.609,4.537 -6.635,2.374 -11.377,5.188 -14.219,8.44 -2.849,3.252 -4.27,7.497 -4.27,12.732 0,5.497 2.065,9.871 6.195,13.123 4.131,3.252 9.594,4.879 16.392,4.879 7.09,0 13.61,-1.302 19.562,-3.903 l -2.586,-7.22 c -5.886,2.472 -11.61,3.707 -17.171,3.707 -4.391,0 -7.822,-0.942 -10.293,-2.829 -2.472,-1.886 -3.708,-4.504 -3.708,-7.854 0,-2.472 0.455,-4.498 1.366,-6.076 0.91,-1.577 2.445,-3.024 4.608,-4.338 2.162,-1.32 5.474,-2.774 9.929,-4.368 7.48,-2.667 12.625,-5.528 15.438,-8.586 C -1.408,8.847 0,4.879 0,0"
             style="fill:#455b65;fill-opacity:1;fill-rule:nonzero;stroke:none"
             id="path122" /></g><g
           id="g124"
           transform="translate(1625.4844,582.2505)"><path
             d="M 0,0 C 16.038,0 29.039,13 29.039,29.038 29.039,45.075 16.038,58.077 0,58.077 -16.037,58.077 -29.038,45.075 -29.038,29.038 -29.038,13 -16.037,0 0,0"
             style="fill:#5ec2d6;fill-opacity:1;fill-rule:nonzero;stroke:none"
             id="path126" /></g><g
           id="g128"
           transform="translate(847.1108,377.0459)"><path
             d="m 0,0 c 0,-8.637 3.037,-12.952 9.122,-12.952 1.943,0 4.437,0.548 7.478,1.64 5.594,2.069 9.002,3.103 10.219,3.103 2.795,0 4.985,-1.765 6.567,-5.291 l 5.655,-12.954 c 0.73,-1.824 1.095,-3.528 1.095,-5.108 0,-2.798 -2.312,-6.203 -6.933,-10.216 -9.244,-7.662 -21.346,-11.495 -36.306,-11.495 -27.246,0 -40.866,18.181 -40.866,54.549 v 260.166 c 0,3.284 0.97,6.08 2.919,8.391 1.944,2.311 4.256,3.467 6.933,3.467 h 24.446 c 2.796,0 5.109,-1.156 6.933,-3.467 C -0.914,267.522 0,264.726 0,261.442 Z"
             style="fill:#455b65;fill-opacity:1;fill-rule:nonzero;stroke:none"
             id="path130" /></g><g
           id="g132"
           transform="translate(944.0273,476.9351)"><path
             d="m 0,0 c -4.56,-6.752 -7.875,-14.415 -9.943,-22.988 -2.068,-8.576 -3.1,-17.273 -3.1,-26.091 0,-8.818 1.186,-17.272 3.557,-25.359 2.372,-8.09 5.929,-15.297 10.674,-21.62 10.459,-13.864 25.054,-20.798 43.786,-20.798 19.094,0 33.569,6.81 43.422,20.434 8.757,11.919 13.135,28.156 13.135,48.712 0,30.771 -10.096,51.996 -30.285,63.672 -7.42,4.256 -16.392,6.386 -26.91,6.386 -10.522,0 -19.404,-2.037 -26.638,-6.112 C 10.461,12.161 4.562,6.75 0,0 m -58.655,-46.434 c 0,15.811 2.645,30.316 7.938,43.515 5.291,13.194 12.557,24.475 21.8,33.843 19.341,19.58 43.725,29.371 73.16,29.371 32.961,0 58.502,-9.791 76.627,-29.371 17.514,-18.856 26.271,-44.761 26.271,-77.722 0,-31.868 -9.913,-57.897 -29.738,-78.086 -19.338,-19.824 -43.727,-29.739 -73.16,-29.739 -31.014,0 -55.949,10.157 -74.8,30.47 -18.732,19.822 -28.098,45.73 -28.098,77.719"
             style="fill:#455b65;fill-opacity:1;fill-rule:nonzero;stroke:none"
             id="path134" /></g><g
           id="g136"
           transform="translate(1257.2754,451.4824)"><path
             d="m 0,0 c -9.975,0 -14.96,4.926 -14.96,14.779 0,11.312 -3.466,19.947 -10.4,25.907 -5.96,5.227 -13.957,7.845 -23.991,7.845 -10.033,0 -18.335,-2.07 -24.902,-6.202 -6.569,-4.137 -11.923,-9.43 -16.055,-15.874 -8.028,-12.651 -12.043,-27.853 -12.043,-45.61 0,-33.205 10.095,-54.978 30.286,-65.315 7.298,-3.771 15.385,-5.657 24.265,-5.657 8.877,0 16.175,0.974 21.893,2.92 5.716,1.943 10.825,4.072 15.326,6.385 4.498,2.31 8.42,4.44 11.767,6.385 3.344,1.945 6.112,2.92 8.302,2.92 4.379,0 7.845,-2.007 10.398,-6.021 l 4.014,-6.75 c 1.826,-3.164 2.738,-6.234 2.738,-9.213 0,-2.981 -1.217,-6.084 -3.65,-9.305 -2.435,-3.224 -5.686,-6.174 -9.759,-8.849 -4.078,-2.677 -8.73,-5.108 -13.958,-7.298 -5.231,-2.189 -10.644,-4.075 -16.238,-5.654 -26.758,-7.176 -51.206,-6.081 -73.341,3.283 -24.814,10.459 -41.903,29.19 -51.267,56.193 -4.625,13.378 -6.933,28.338 -6.933,44.881 0,16.539 2.462,31.381 7.388,44.517 4.926,13.135 11.769,24.264 20.526,33.386 18.121,18.729 41.779,28.095 70.97,28.095 25.785,0 45.549,-6.75 59.293,-20.25 C 21.223,53.942 27.002,39.469 27.002,22.076 27.002,7.359 19.458,0 4.378,0 Z"
             style="fill:#455b65;fill-opacity:1;fill-rule:nonzero;stroke:none"
             id="path138" /></g><g
           id="g140"
           transform="translate(1355.2979,413.9917)"><path
             d="m 0,0 c -4.987,-3.713 -8.547,-7.39 -10.672,-11.038 -2.131,-3.65 -3.192,-7.936 -3.192,-12.862 0,-4.927 0.88,-9.305 2.644,-13.136 1.761,-3.831 4.226,-7.024 7.389,-9.579 6.686,-5.231 14.199,-7.844 22.531,-7.844 8.329,0 15.172,0.972 20.527,2.918 5.349,1.944 9.969,4.438 13.864,7.481 8.392,6.567 12.588,13.5 12.588,20.798 C 64.95,-14.141 59.902,-6.965 50.536,-1.733 42.146,3.13 32.229,5.564 20.8,5.564 11.918,5.564 4.985,3.709 0,0 m 122.236,-77.448 c 0,-6.449 -3.163,-9.669 -9.486,-9.669 H 95.053 c -4.743,0 -7.603,0.942 -8.574,2.828 -0.975,1.883 -1.523,3.585 -1.643,5.108 -0.122,1.52 -0.364,3.376 -0.729,5.564 -0.73,5.958 -1.764,12.408 -3.102,19.34 -9.487,-17.396 -24.387,-28.889 -44.697,-34.483 -7.178,-1.944 -15.084,-2.919 -23.72,-2.919 -8.637,0 -17.272,1.432 -25.907,4.288 -8.637,2.856 -16.299,7.085 -22.986,12.681 -15.084,12.647 -22.624,29.25 -22.624,49.805 0,22.502 8.271,39.711 24.812,51.632 13.62,9.607 31.135,14.414 52.544,14.414 21.406,0 39.527,-6.266 54.369,-18.793 0.364,4.134 0.547,9.305 0.547,15.509 0,6.203 -1.217,12.405 -3.65,18.608 -2.434,6.204 -5.901,11.373 -10.398,15.509 -9.245,8.147 -22.139,12.224 -38.679,12.224 -14.841,0 -29.921,-4.077 -45.245,-12.224 -2.919,-1.584 -5.474,-2.373 -7.664,-2.373 -3.283,0 -6.447,3.222 -9.486,9.671 -3.284,6.567 -4.926,11.31 -4.926,14.228 0,5.353 4.015,10.521 12.041,15.51 15.326,9.486 35.818,14.229 61.483,14.229 23.353,0 42.693,-6.384 58.017,-19.155 18.121,-15.326 27.184,-36.977 27.184,-64.95 0,-12.407 -2.007,-28.037 -6.02,-46.889 10.337,-29.435 15.75,-52.665 16.236,-69.693"
             style="fill:#455b65;fill-opacity:1;fill-rule:nonzero;stroke:none"
             id="path142" /></g><g
           id="g144"
           transform="translate(1547.5811,377.0459)"><path
             d="m 0,0 c 0,-8.637 3.037,-12.952 9.122,-12.952 1.943,0 4.438,0.548 7.479,1.64 5.593,2.069 9.002,3.103 10.218,3.103 2.795,0 4.986,-1.765 6.568,-5.291 l 5.656,-12.954 c 0.729,-1.824 1.094,-3.528 1.094,-5.108 0,-2.798 -2.311,-6.203 -6.934,-10.216 -9.244,-7.662 -21.346,-11.495 -36.305,-11.495 -27.247,0 -40.867,18.181 -40.867,54.549 v 260.166 c 0,3.284 0.971,6.08 2.919,8.391 1.944,2.311 4.256,3.467 6.934,3.467 h 24.445 c 2.797,0 5.109,-1.156 6.934,-3.467 C -0.914,267.522 0,264.726 0,261.442 Z"
             style="fill:#455b65;fill-opacity:1;fill-rule:nonzero;stroke:none"
             id="path146" /></g><g
           id="g148"
           transform="translate(1645.2354,377.0459)"><path
             d="m 0,0 c 0,-8.637 2.855,-12.952 8.574,-12.952 1.944,0 4.134,0.548 6.569,1.64 4.743,2.069 7.963,3.103 9.669,3.103 2.554,0 4.621,-1.765 6.203,-5.291 l 5.654,-12.771 c 0.974,-2.071 1.46,-4.014 1.46,-5.838 0,-5.232 -4.501,-10.097 -13.5,-14.596 -8.516,-4.378 -16.94,-6.568 -25.27,-6.568 -8.331,0 -14.991,0.912 -19.976,2.738 -4.989,1.823 -9.245,4.862 -12.772,9.121 -7.054,8.757 -10.581,22.988 -10.581,42.69 v 142.307 c 0,3.405 0.972,6.263 2.92,8.575 1.944,2.309 4.256,3.467 6.933,3.467 h 24.448 c 2.795,0 5.107,-1.158 6.931,-3.467 C -0.912,149.846 0,146.988 0,143.583 Z"
             style="fill:#455b65;fill-opacity:1;fill-rule:nonzero;stroke:none"
             id="path150" /></g><g
           id="g152"
           transform="translate(1786.7334,356.0254)"><path
             d="m 0,0 c 7.868,0 15.078,1.9 21.639,5.723 6.549,3.811 12.216,8.942 16.989,15.38 10.015,13.826 15.022,29.921 15.022,48.285 0,19.789 -5.611,36.002 -16.81,48.643 -10.731,12.161 -23.551,18.241 -38.449,18.241 -14.788,0 -26.357,-6.795 -34.695,-20.387 -7.51,-12.16 -11.266,-27.663 -11.266,-46.497 0,-19.314 3.867,-35.297 11.624,-47.927 C -27.25,7.153 -15.269,0 0,0 m 82.621,169.178 c 7.512,0 11.267,-4.65 11.267,-13.949 v -276.836 c 0,-3.097 -0.894,-5.846 -2.682,-8.227 -1.789,-2.381 -4.058,-3.577 -6.796,-3.577 H 59.552 c -2.75,0 -5.041,1.196 -6.885,3.577 -1.855,2.381 -2.772,5.13 -2.772,8.227 v 75.11 c 0,9.657 0.648,24.97 1.967,45.961 -9.546,-17.168 -23.908,-28.435 -43.099,-33.8 -6.439,-1.788 -14.732,-2.683 -24.859,-2.683 -10.137,0 -20.298,2.895 -30.491,8.674 -10.193,5.779 -18.755,13.558 -25.663,23.338 -14.194,19.783 -21.281,44.944 -21.281,75.468 0,28.849 8.405,53.293 25.216,73.323 16.687,19.906 36.359,29.865 59.015,29.865 14.777,0 27.273,-2.923 37.466,-8.763 10.193,-5.845 19.046,-14.547 26.558,-26.11 l 4.292,17.168 1.609,5.902 c 0.95,3.336 2.414,5.393 4.381,6.17 1.968,0.771 4.136,1.162 6.528,1.162 z"
             style="fill:#455b65;fill-opacity:1;fill-rule:nonzero;stroke:none"
             id="path154" /></g><g
           id="g156"
           transform="translate(2102.9492,333.0889)"><path
             d="m 0,0 c 0,-8.114 -3.688,-12.16 -11.088,-12.16 h -8.048 c -7.153,0 -11.87,2.861 -14.128,8.584 -2.504,6.55 -5.186,15.67 -8.048,27.361 -5.006,-12.518 -13.501,-22.388 -25.483,-29.597 -11.982,-7.209 -26.915,-10.819 -44.799,-10.819 -23.36,0 -40.595,7.299 -51.672,21.907 -11.088,14.597 -16.631,36.147 -16.631,64.649 v 107.838 c 0,3.336 1.04,6.136 3.129,8.404 2.08,2.264 5.03,3.398 8.853,3.398 h 19.66 c 7.869,0 11.804,-3.934 11.804,-11.802 V 71.892 c 0,-28.501 6.616,-44.955 19.85,-49.359 4.292,-1.43 9.389,-2.145 15.29,-2.145 5.902,0 11.983,1.363 18.242,4.113 6.259,2.738 11.892,6.371 16.9,10.909 11.199,10.372 16.811,22.232 16.811,35.588 v 106.765 c 0,3.336 1.005,6.136 3.04,8.404 2.034,2.264 5.253,3.398 9.657,3.398 h 18.777 c 4.18,0 7.221,-1.134 9.12,-3.398 1.901,-2.268 2.862,-5.068 2.862,-8.404 V 65.991 c 0,-25.16 1.789,-45.425 5.365,-60.804 C -0.18,3.868 0,2.146 0,0"
             style="fill:#455b65;fill-opacity:1;fill-rule:nonzero;stroke:none"
             id="path158" /></g><g
           id="g160"
           transform="translate(2185.9863,369.3926)"><path
             d="m 0,0 c 0,-8.472 2.795,-12.697 8.405,-12.697 1.901,0 4.047,0.537 6.439,1.609 4.649,2.024 7.802,3.041 9.478,3.041 2.504,0 4.527,-1.733 6.08,-5.186 l 5.544,-12.519 c 0.95,-2.034 1.431,-3.935 1.431,-5.723 0,-5.13 -4.415,-9.903 -13.233,-14.306 -8.35,-4.292 -16.61,-6.439 -24.769,-6.439 -8.171,0 -14.698,0.895 -19.583,2.683 -4.896,1.788 -9.064,4.762 -12.519,8.941 -6.918,8.585 -10.372,22.534 -10.372,41.848 v 139.492 c 0,3.336 0.951,6.136 2.862,8.404 1.9,2.264 4.169,3.398 6.796,3.398 h 23.963 c 2.739,0 5.007,-1.134 6.796,-3.398 C -0.894,146.88 0,144.08 0,140.744 Z"
             style="fill:#455b65;fill-opacity:1;fill-rule:nonzero;stroke:none"
             id="path162" /></g><g
           id="g164"
           transform="translate(2300.1357,353.7451)"><path
             d="m 0,0 21.64,1.788 h 65.811 c 2.738,0 5.097,-0.872 7.064,-2.593 1.966,-1.732 2.951,-3.845 2.951,-6.348 V -20.03 c 0,-6.203 -1.018,-10.015 -3.04,-11.446 -3.108,-2.391 -8.048,-3.576 -14.844,-3.576 H -37.555 c -7.633,0 -12.943,3.689 -15.917,11.088 -1.072,2.503 -1.609,5.477 -1.609,8.942 0,5.242 3.398,12.808 10.194,22.711 l 70.461,101.221 14.664,19.672 c 0.716,0.833 1.074,1.548 1.074,2.146 0,0.592 -0.783,0.894 -2.326,0.894 l -26.109,-1.788 h -50.969 c -5.722,0 -9.422,0.833 -11.087,2.503 -2.862,2.862 -4.293,7.512 -4.293,13.95 v 11.624 c 0,2.381 0.951,4.437 2.862,6.17 1.9,1.727 4.225,2.593 6.974,2.593 H 77.973 c 4.884,0 8.405,-1.431 10.55,-4.292 3.578,-4.415 5.366,-8.674 5.366,-12.787 0,-4.113 -0.425,-7.422 -1.252,-9.925 -0.838,-2.504 -1.856,-4.829 -3.04,-6.975 -1.197,-2.146 -2.504,-4.174 -3.935,-6.08 -1.431,-1.911 -2.683,-3.7 -3.755,-5.365 L 16.274,22.175 -0.536,2.503 C -1.017,1.899 -1.251,1.341 -1.251,0.805 -1.251,0.268 -0.838,0 0,0"
             style="fill:#455b65;fill-opacity:1;fill-rule:nonzero;stroke:none"
             id="path166" /></g><g
           id="g168"
           transform="translate(2472.418,358.5293)"><path
             d="M 0,0 21.639,1.788 H 87.45 c 2.738,0 5.097,-0.871 7.064,-2.593 1.967,-1.732 2.951,-3.844 2.951,-6.348 v -12.876 c 0,-6.203 -1.018,-10.015 -3.04,-11.446 -3.108,-2.392 -8.048,-3.577 -14.844,-3.577 H -37.556 c -7.633,0 -12.943,3.689 -15.916,11.088 -1.073,2.504 -1.609,5.477 -1.609,8.942 0,5.242 3.397,12.809 10.193,22.712 l 70.461,101.221 14.664,19.672 c 0.716,0.832 1.074,1.547 1.074,2.146 0,0.592 -0.783,0.894 -2.326,0.894 l -26.109,-1.789 h -50.968 c -5.722,0 -9.423,0.833 -11.088,2.504 -2.861,2.861 -4.292,7.511 -4.292,13.949 v 11.624 c 0,2.381 0.951,4.438 2.862,6.17 1.899,1.727 4.224,2.593 6.974,2.593 H 77.972 c 4.884,0 8.405,-1.43 10.551,-4.292 3.577,-4.415 5.365,-8.673 5.365,-12.786 0,-4.114 -0.425,-7.422 -1.251,-9.926 -0.839,-2.503 -1.856,-4.828 -3.041,-6.974 -1.196,-2.146 -2.503,-4.175 -3.934,-6.081 -1.431,-1.911 -2.683,-3.699 -3.756,-5.365 L 16.273,22.176 -0.537,2.504 C -1.018,1.9 -1.252,1.342 -1.252,0.805 -1.252,0.269 -0.839,0 0,0"
             style="fill:#455b65;fill-opacity:1;fill-rule:nonzero;stroke:none"
             id="path170" /></g><g
           id="g172"
           transform="translate(2165.7285,582.2505)"><path
             d="M 0,0 C 16.038,0 29.039,13 29.039,29.038 29.039,45.075 16.038,58.077 0,58.077 -16.037,58.077 -29.038,45.075 -29.038,29.038 -29.038,13 -16.037,0 0,0"
             style="fill:#5ec2d6;fill-opacity:1;fill-rule:nonzero;stroke:none"
             id="path174" /></g></g></g></g></svg>
